<svg width="1200" height="630" viewBox="0 0 1200 630" fill="none" xmlns="http://www.w3.org/2000/svg">
  <!-- Background gradient -->
  <defs>
    <linearGradient id="bgGradient" x1="0%" y1="0%" x2="100%" y2="100%">
      <stop offset="0%" style="stop-color:#F59E0B" />
      <stop offset="100%" style="stop-color:#EC4899" />
    </linearGradient>
    <linearGradient id="textGradient" x1="0%" y1="0%" x2="100%" y2="0%">
      <stop offset="0%" style="stop-color:#F59E0B" />
      <stop offset="100%" style="stop-color:#EC4899" />
    </linearGradient>
  </defs>

  <!-- Background -->
  <rect width="1200" height="630" fill="url(#bgGradient)" />

  <!-- Decorative circles -->
  <circle cx="100" cy="100" r="200" fill="white" fill-opacity="0.1" />
  <circle cx="1100" cy="530" r="250" fill="white" fill-opacity="0.1" />

  <!-- Logo icon -->
  <g transform="translate(540, 150)">
    <rect x="0" y="0" width="120" height="120" rx="24" fill="white" />
    <path d="M60 35C48.954 35 40 43.954 40 55C40 72.142 60 85 60 85C60 85 80 72.142 80 55C80 43.954 71.046 35 60 35ZM60 63C55.582 63 52 59.418 52 55C52 50.582 55.582 47 60 47C64.418 47 68 50.582 68 55C68 59.418 64.418 63 60 63Z" fill="url(#bgGradient)" />
  </g>

  <!-- Brand name -->
  <text x="600" y="340" text-anchor="middle" font-family="system-ui, -apple-system, sans-serif" font-size="72" font-weight="bold" fill="white">TravelMatch</text>

  <!-- Tagline -->
  <text x="600" y="420" text-anchor="middle" font-family="system-ui, -apple-system, sans-serif" font-size="36" fill="white" fill-opacity="0.9">Give a moment. See it happen.</text>

  <!-- Description -->
  <text x="600" y="500" text-anchor="middle" font-family="system-ui, -apple-system, sans-serif" font-size="24" fill="white" fill-opacity="0.8">Gift real travel experiences with verified proof</text>

  <!-- URL -->
  <text x="600" y="580" text-anchor="middle" font-family="system-ui, -apple-system, sans-serif" font-size="20" fill="white" fill-opacity="0.6">travelmatch.app</text>
</svg>
